<svg viewBox="0 0 100 100" xmlns="http://www.w3.org/2000/svg">
  <circle cx="12" cy="36" r="1.4" fill="#c9a45c" opacity="0.28"/>
  <circle cx="22" cy="32" r="1.8" fill="#c9a45c" opacity="0.4"/>
  <circle cx="32" cy="28" r="2.0" fill="#c9a45c" opacity="0.5"/>
  <circle cx="42" cy="32" r="1.6" fill="#c9a45c" opacity="0.58"/>
  <circle cx="52" cy="36" r="2.2" fill="#c9a45c" opacity="0.66"/>
  <circle cx="62" cy="30" r="1.8" fill="#c9a45c" opacity="0.74"/>
  <circle cx="72" cy="26" r="2.4" fill="#c9a45c" opacity="0.82"/>
  <circle cx="82" cy="32" r="2.0" fill="#c9a45c" opacity="0.9"/>
  <circle cx="90" cy="34" r="2.6" fill="#c9a45c" opacity="0.96"/>
  <circle cx="14" cy="50" r="1.2" fill="#c9a45c" opacity="0.16"/>
  <circle cx="26" cy="54" r="1.5" fill="#c9a45c" opacity="0.24"/>
  <circle cx="38" cy="48" r="1.8" fill="#c9a45c" opacity="0.3"/>
  <circle cx="50" cy="52" r="1.4" fill="#c9a45c" opacity="0.36"/>
  <circle cx="62" cy="48" r="2.0" fill="#c9a45c" opacity="0.42"/>
  <circle cx="74" cy="54" r="1.6" fill="#c9a45c" opacity="0.46"/>
  <circle cx="86" cy="50" r="2.2" fill="#c9a45c" opacity="0.52"/>
  <circle cx="16" cy="66" r="0.9" fill="#c9a45c" opacity="0.06"/>
  <circle cx="30" cy="70" r="1.2" fill="#c9a45c" opacity="0.1"/>
  <circle cx="44" cy="74" r="1.4" fill="#c9a45c" opacity="0.14"/>
  <circle cx="58" cy="70" r="1.2" fill="#c9a45c" opacity="0.17"/>
  <circle cx="72" cy="66" r="1.6" fill="#c9a45c" opacity="0.2"/>
  <circle cx="86" cy="68" r="1.8" fill="#c9a45c" opacity="0.24"/>
</svg>
